<?xml version="1.0" encoding="UTF-8"?>
<svg viewBox="0 0 50 50" version="1.1" xmlns="http://www.w3.org/2000/svg" xmlns:xlink="http://www.w3.org/1999/xlink">
    <title>Group 2 Copy 2</title>
    <defs>
        <rect id="path-1" x="0" y="0" width="50" height="50" rx="4"></rect>
    </defs>
    <g id="Page-1" stroke="none" stroke-width="1" fill="none" fill-rule="evenodd">
        <g id="LeftsideMenu-Not-LoggedIn-Mobile" transform="translate(-25.000000, -54.000000)">
            <g id="Group-2-Copy-2" transform="translate(25.000000, 54.000000)">
                <mask id="mask-2" fill="white">
                    <use xlink:href="#path-1"></use>
                </mask>
                <use id="Mask" fill="#292C3D" xlink:href="#path-1"></use>
                <path d="M29.217105,9.2714125 C29.2146064,9.03876194 29.2146064,9.03876194 29.0127723,8.97712897 C29.0860655,9.08290447 29.1340948,9.15203333 29.217105,9.2714125 M30.2359923,8.95408602 C30.0816323,9.09345425 30.0419317,9.18479319 30.1926826,9.30833675 C30.2043429,9.21200054 30.2162808,9.11566433 30.2359923,8.95408602 M33.1271891,11.5212933 C33.3392953,11.4827033 33.4825503,11.4566065 33.6263606,11.4305096 C33.4006507,11.3194592 33.4006507,11.3194592 33.1271891,11.5212933 M34.2932181,11.8697139 C34.101101,11.4579946 34.0072634,11.4305096 33.632746,11.6817611 C33.8529033,11.7681028 34.0444653,11.8927568 34.2932181,11.8697139 M-3,60.676636 C-2.99500273,59.2199326 -2.64186251,57.8223635 -2.31787301,56.4195195 C-1.98083509,54.958374 -1.54884909,53.523603 -1.07327581,52.1021581 C-0.93362995,51.6846087 -0.752895447,51.2828839 -0.676270681,50.843402 C-0.645454199,50.6654437 -0.556336264,50.4910946 -0.4658302,50.3309044 C-0.358388952,50.140453 -0.198754023,49.9783195 -0.211247191,49.7356744 C-0.213468199,49.6948634 -0.178209701,49.649888 -0.155166746,49.6101874 C0.165491242,49.0596552 0.465049657,48.4949639 0.814858372,47.9635879 C1.15855932,47.4413734 1.51891782,46.9222129 1.93480151,46.4582999 C2.38566608,45.9552416 2.9675701,45.6093197 3.60499931,45.3666746 C3.87512937,45.2636754 4.12943476,45.1176441 4.40206345,45.0232513 C4.87236184,44.8602848 5.35765202,44.7397952 5.82378602,44.5673894 C6.08059003,44.4724414 6.31768261,44.3178037 6.55310942,44.1737158 C6.92957023,43.9432863 7.3601681,43.888594 7.77466366,43.7933682 C8.78855369,43.5598848 9.73803448,43.1545509 10.6861271,42.742554 C11.0695286,42.5759784 11.4504314,42.4035727 11.8332776,42.2353313 C12.0909145,42.1220599 12.3202336,41.9807483 12.5009681,41.7505964 C12.5948057,41.630662 12.7502762,41.5473742 12.8932536,41.4793558 C13.2419518,41.3133355 13.6148034,41.2317135 13.999593,41.1903472 C14.1322982,41.1759107 14.2600062,41.1131672 14.3893799,41.0698575 C14.4990421,41.0332109 14.6064834,40.9632492 14.7167009,40.9593624 C15.3219255,40.9368747 15.816655,40.657583 16.2286519,40.2555806 C16.5137738,39.977677 16.882461,39.9221518 17.2058953,39.7525223 C17.2517036,39.7286465 17.3266626,39.7294794 17.3766353,39.7486356 C17.6464877,39.8513572 17.8461008,39.725315 18.0398837,39.5634591 C18.3252832,39.3255336 18.6117932,39.0892739 18.899136,38.8544023 C19.0740404,38.7111473 19.1473337,38.5392969 19.1262341,38.3052582 C19.0751509,37.7389012 19.0573828,37.1694904 19.0035234,36.603411 C18.9127397,35.6558736 18.7714281,34.7116677 18.7153477,33.7624645 C18.6825878,33.2022153 18.524341,32.7019334 18.2947443,32.2055381 C18.0207275,31.6130843 17.8630359,30.9828734 17.733107,30.3451665 C17.7039563,30.2021892 17.6689754,30.0600447 17.6267763,29.87348 C17.1686934,30.262434 16.7675239,30.0919717 16.3788475,29.8476608 C16.0084945,29.6150103 15.7300357,29.3140637 15.5493012,28.8942933 C15.3260899,28.3762432 15.1647892,27.8537511 15.1009352,27.2940572 C15.0376365,26.7365843 14.8641203,26.2060411 14.6509035,25.6885463 C14.5107024,25.3478992 14.4754439,25.0000339 14.5045947,24.631069 C14.531802,24.2859799 14.4984869,23.9361712 14.4940449,23.5883058 C14.4915462,23.3956334 14.502096,23.2021281 14.4898805,23.010011 C14.4846056,22.9289442 14.4007625,22.8451011 14.4129781,22.7723631 C14.4729453,22.4158914 14.8074846,22.0336004 15.2428021,22.3087278 C15.4079895,22.4133928 15.5915003,22.4902951 15.7700138,22.5721948 C15.8194312,22.5946825 15.8813418,22.5894076 15.9560232,22.5994022 C16.0129365,22.3553689 15.962131,22.1357668 15.9138241,21.9103345 C15.8710697,21.7087781 15.8594094,21.5 15.8430294,21.2937272 C15.8222075,21.029705 15.8177655,20.7642945 15.7927791,20.5011051 C15.7694586,20.260681 15.7280923,20.0222003 15.6892246,19.7429086 C15.620651,19.8025982 15.5781743,19.8398001 15.5165413,19.8933819 C15.4160407,19.6299148 15.4252024,19.3695017 15.4576846,19.1093662 C15.5151532,18.6510057 15.5803953,18.1934781 15.6389743,17.7351176 C15.6564648,17.5971375 15.6745105,17.4569364 15.5365304,17.3556029 C15.50266,17.3306166 15.4696225,17.2784229 15.4687896,17.2381672 C15.461849,16.9424955 15.4110434,16.6351636 15.4732316,16.3533732 C15.6001067,15.7784098 15.6747881,15.1876218 15.9343684,14.6434749 C16.0251521,14.4533011 16.0384781,14.2242597 16.0765129,14.0107653 C16.1409221,13.6479082 16.1970025,13.2836629 16.2605789,12.894709 C16.1920053,12.9430159 16.1353696,12.9832716 16.0784562,13.0235274 C16.0620763,13.0099237 16.0462516,12.9963201 16.0301493,12.982994 C16.1703504,12.792265 16.293894,12.5865441 16.4540842,12.414416 C16.6925649,12.1578896 16.8730218,11.8683258 17.0651389,11.5787619 C17.2589218,11.286977 17.5559816,11.0612671 17.8183382,10.8183444 C18.0887459,10.5676481 18.4005198,10.3563748 18.6420544,10.0815251 C18.9035781,9.78418765 19.2306214,9.6403774 19.5851498,9.52655076 C19.8488945,9.44159721 20.117914,9.37246835 20.3849902,9.29778696 C20.9743901,9.13287714 21.4091524,8.75364007 21.8253137,8.32220932 C22.0599076,8.07900898 22.3519702,7.87523152 22.6878976,7.76251538 C22.7500858,7.74169343 22.8083872,7.71004407 22.8839015,7.67672896 C22.6767925,7.46517797 22.4494169,7.46628848 22.1967772,7.57539548 C22.1948339,7.54735526 22.1928905,7.51903741 22.1909471,7.49099719 C22.2248175,7.4590702 22.2575773,7.40187925 22.2936687,7.39965825 C22.4749585,7.38883083 22.6673533,7.35412759 22.837538,7.39882537 C23.1556973,7.48239078 23.4613635,7.61454074 23.8228325,7.74474732 C23.6976232,7.42742084 23.4444283,7.25029548 23.214554,7.00098736 C23.5232741,6.9843298 23.7153913,7.18227712 23.951651,7.30498779 C23.990241,7.2067082 24.0213351,7.12702955 24.0527068,7.0473509 C24.0699196,7.04762852 24.0871324,7.04762852 24.1043452,7.04762852 C24.1323855,7.18005611 24.1607033,7.31220607 24.187633,7.44463365 C24.2587053,7.79194373 24.3989064,7.92103981 24.7412192,7.96573759 C24.8550459,7.98072939 24.9660962,8.01654314 25.0799229,8.03458883 C25.1534938,8.04624912 25.2295633,8.04347286 25.3172931,7.98211752 C25.1085184,7.92298319 24.8997436,7.86384886 24.7070712,7.80915654 C24.8533801,7.71753997 24.9644305,7.70143767 25.3475543,7.79499762 C25.5810377,7.85191094 25.8075805,7.94213938 26.0316247,8.03097969 C26.2545583,8.11926474 26.470829,8.22448499 26.7223581,8.33636825 C26.7143069,8.2353124 26.709032,8.16618353 26.7018138,8.07678797 C26.9533429,8.1284264 27.1260262,8.24891607 27.232357,8.4524159 C27.3253617,8.63065177 27.4369673,8.77723828 27.6290845,8.86413521 C27.7182024,8.90411335 27.7884418,8.99545229 27.8542391,9.07457569 C27.9428018,9.18035118 28.0352513,9.25503256 28.1732314,9.20478226 C28.1732314,8.94187048 28.1843364,8.68201257 28.1701775,8.4235428 C28.1568514,8.17839908 28.0660678,7.93519873 28.2015492,7.68366961 C28.2531877,8.02931393 28.3081576,8.37440301 28.355354,8.72060258 C28.3864481,8.94936638 28.4242052,9.16369362 28.5702365,9.36413957 C28.6929472,9.53293615 28.8367574,9.59567962 29.0219339,9.63454726 C29.0488637,9.24975767 28.9555813,9.12843512 28.5810639,9.05430899 C28.6929472,8.79833785 28.9142151,8.70422265 29.1588035,8.68256783 C29.4189391,8.65952487 29.617164,8.57595946 29.7487587,8.33720113 C29.8009524,8.24253067 29.9031188,8.17562282 29.9889052,8.08928114 C30.153815,8.21754434 30.2951266,8.32748422 30.453651,8.45102777 C30.4242227,8.87746125 30.3931286,9.32443905 30.3606463,9.79334931 C30.453651,9.79917945 30.5352731,9.80417672 30.62217,9.80945161 C30.6565956,10.1115087 30.6721427,10.399962 30.7279455,10.6803643 C30.7562633,10.820843 30.8423274,10.9571573 30.9289467,11.0759813 C31.0136226,11.1920289 31.111347,11.3194592 31.299855,11.2522737 C31.3276176,11.2425568 31.3884177,11.3039122 31.4236762,11.3419469 C31.5241768,11.4507763 31.6194025,11.564603 31.7315634,11.693699 C31.963381,11.6195729 32.1849266,11.5124093 32.3639953,11.336672 C32.5377892,11.1659321 32.6885401,10.9718715 32.8648325,10.8041854 C32.9767158,10.6978547 33.1166393,10.6206747 33.2937647,10.4949101 C33.0855452,10.7811425 32.9203577,11.0079629 32.7551703,11.2347833 C32.7698845,11.2531066 32.784321,11.2717076 32.7987576,11.2900309 C32.9206354,11.2536619 33.0525077,11.2364491 33.1613371,11.1767595 C33.3504004,11.0734826 33.5228061,11.1151265 33.6941013,11.1978591 C33.8781673,11.2866994 34.0750041,11.2564381 34.259903,11.2855889 C34.5230924,11.3272328 34.7904462,11.3208474 35.055579,11.4110758 C34.8134892,11.436895 34.5713993,11.4629919 34.2912747,11.4929755 C34.4234247,11.7109118 34.5350303,11.8891477 34.4628476,12.1073617 L34.4708987,12.0984777 C33.905097,11.8500024 33.3351309,11.727847 32.7485073,12.0243516 C32.7529493,12.0546128 32.7535045,12.0734914 32.7562808,12.073769 C32.8098626,12.080432 32.8639997,12.0845964 32.9267431,12.0904265 L32.9267431,12.2156358 C33.0697205,12.2800451 33.2385171,12.303088 33.3126432,12.3994242 C33.5328006,12.685379 33.8084832,12.7048128 34.12109,12.6470666 C34.1643997,12.6387378 34.2107632,12.6456785 34.29183,12.6456785 C34.2971049,12.987436 34.5411381,13.1573431 34.7779531,13.3458511 C34.9234291,13.4613435 35.0255954,13.6304178 35.1086056,13.81726 C35.0497489,13.8000472 34.9908922,13.7828344 34.9303697,13.7650663 C35.005884,13.9938301 35.078622,14.2153757 35.1724596,14.5002199 C34.9722912,14.3908353 34.9731241,14.2248149 34.8853943,14.1009938 C34.8548555,14.1190395 34.821818,14.1381956 34.7901686,14.1567966 C34.6996625,14.0624038 34.6091565,13.9680109 34.5186504,13.8733405 L34.4609042,13.9163725 C34.4956075,13.9802265 34.5242029,14.0488001 34.5664021,14.1076568 C34.8726235,14.5407533 35.1774568,14.9652434 35.2235427,15.5293794 C35.2426989,15.7625852 35.3973366,15.9824649 35.4717403,16.214005 C35.6549735,16.7814724 35.7016146,17.3647646 35.6319305,17.955275 C35.5850117,18.3561669 35.5311523,18.7570588 35.4595248,19.1540639 C35.4003905,19.4830507 35.2965584,19.8042639 35.2404779,20.1335283 C35.2124377,20.2995487 35.2535263,20.4761188 35.2496396,20.647414 C35.2429765,20.9714035 35.2377017,21.2962259 35.2104943,21.6188272 C35.183287,21.9408734 35.1477508,22.2604208 35.2318715,22.6310515 C35.4442554,22.5391573 35.6269333,22.4519828 35.8157189,22.3803553 C36.1705249,22.2459843 36.460644,22.3512045 36.6510954,22.6721402 C36.6627557,22.6921292 36.678858,22.711563 36.6841329,22.7334955 C36.7441001,22.986968 36.8421021,23.2396076 36.8534848,23.4955788 C36.8834684,24.1588272 36.8579268,24.8187441 36.5991794,25.4500656 C36.5211665,25.640517 36.4897948,25.854289 36.4634203,26.0608427 C36.3540357,26.9164859 36.137765,27.7440889 35.8343199,28.5500371 C35.6097204,29.1461 35.2998899,29.6833063 34.7710124,30.065042 C34.6771748,30.1330603 34.5786176,30.1969143 34.4745079,30.246887 C34.2587925,30.3501638 34.048352,30.3498862 33.8584559,30.1802567 C33.8079279,30.1352813 33.7532356,30.0950256 33.6599533,30.0203442 C33.6063715,30.3035227 33.5505687,30.546723 33.5144773,30.7929772 C33.4050927,31.5445107 33.1233023,32.2444058 32.8878755,32.9587374 C32.8056982,33.2074902 32.7554479,33.4734559 32.7376798,33.7349796 C32.6746588,34.65059 32.6244085,35.5667557 32.5852632,36.4837542 C32.5647189,36.9701549 32.5752687,37.4579437 32.5747134,37.9451773 C32.5744358,38.0728853 32.6083061,38.2050352 32.5858184,38.3274683 C32.5258512,38.6553445 32.7013108,38.8341357 32.9384034,39.0137597 C33.2013152,39.2128175 33.4492352,39.3327519 33.7979334,39.2452997 C34.0872197,39.173117 34.3970502,39.1700631 34.698552,39.1625672 C35.005884,39.1550713 35.2848981,39.2230896 35.5006134,39.4876672 C35.7049462,39.7389187 35.9412058,39.966572 36.1777432,40.1889504 C36.4148357,40.4116064 36.6882973,40.5562495 37.0047909,40.6742405 C37.3734782,40.8116654 37.7574349,40.9030043 38.1175158,41.0559762 C38.370433,41.1634175 38.5914233,41.3435967 38.8404538,41.4624207 C39.0908724,41.5817998 39.3607248,41.6595351 39.6180841,41.7655882 C39.8746105,41.8716413 40.1222529,41.9993493 40.3798898,42.1017932 C40.9615162,42.3330557 41.5445307,42.5609866 42.131432,42.7780901 C42.4795749,42.9069085 42.8343809,43.0165708 43.188354,43.1284541 C43.863818,43.3413932 44.5362281,43.5659926 45.2180774,43.7558887 C46.1495125,44.0151914 47.0481878,44.3608357 47.9354804,44.7386847 C48.4887889,44.9743891 48.9590873,45.3353029 49.366087,45.7736742 C49.8399945,46.2842284 50.3100152,46.7995022 50.7617127,47.3297678 C51.0548857,47.674024 51.3091911,48.0513177 51.5873723,48.4086223 C51.6859295,48.5349421 51.7936484,48.6573751 51.9138604,48.7620401 C52.0879319,48.9136239 52.0937621,49.1293393 52.1570608,49.3228446 C52.1814919,49.3980812 52.1559503,49.4921964 52.1878773,49.5618805 C52.5984861,50.4533375 52.66234,51.425306 52.837522,52.3700672 C52.9941031,53.2140501 53.1565143,54.0555344 53.3511301,54.8925767 C53.7958868,56.8040314 54.2553578,58.7129876 54.5821236,60.6508168" id="Fill-1" fill="#FFFFFF" opacity="0.2" mask="url(#mask-2)"></path>
            </g>
        </g>
    </g>
</svg>